<svg xmlns="http://www.w3.org/2000/svg" width="60" height="102.5"><defs><clipPath><path d="M3 4h477v811h-477v-811z"/></clipPath></defs><g fill="#e47d08" fill-rule="evenodd" transform="matrix(.125 0 0 -.125 0 102.5)"><path d="m237.73 691.879c47.704 0 86.5-38.797 86.5-86.5 0-47.656-38.796-86.461-86.5-86.461-47.656 0-86.5 38.805-86.5 86.461 0 47.703 38.844 86.5 86.5 86.5zm0-295.348c115.235 0 208.911 93.676 208.911 208.848 0 115.223-93.676 208.933-208.911 208.933-115.21 0-208.91-93.71-208.91-208.933 0-115.172 93.7-208.848 208.91-208.848z"/><path d="m322.25 226.105c42.531 9.692 83.547 26.516 121.316 50.247 28.586 18.015 37.204 55.808 19.188 84.398-17.992 28.652-55.762 37.27-84.399 19.254-85.57-53.824-195.753-53.801-281.273 0-28.641 18.016-66.406 9.398-84.379-19.254-18.016-28.613-9.422-66.383 19.168-84.398 37.766-23.707 78.781-40.555 121.313-50.247l-116.797-116.796c-23.879-23.903-23.879-62.649.024-86.547 11.965-11.941 27.613-17.922 43.262-17.922 15.676 0 31.348 5.98 43.312 17.922l114.719 114.769 114.82-114.769c23.879-23.902 62.622-23.902 86.524 0 23.926 23.898 23.926 62.672 0 86.547l-116.797 116.796"/></g></svg>
